<mxfile host="app.diagrams.net" agent="Mozilla/5.0 (Windows NT 10.0; Win64; x64) AppleWebKit/537.36 (KHTML, like Gecko) Chrome/135.0.0.0 Safari/537.36" version="26.2.13">
  <diagram name="Page-1" id="GtmhTtgCfAFyXDLij7Sa">
    <mxGraphModel dx="1428" dy="777" grid="1" gridSize="10" guides="1" tooltips="1" connect="1" arrows="1" fold="1" page="1" pageScale="1" pageWidth="1100" pageHeight="850" math="0" shadow="0">
      <root>
        <mxCell id="0" />
        <mxCell id="1" parent="0" />
        <mxCell id="9ob-cdifd-hkWzv3taAA-42" value="" style="rounded=0;whiteSpace=wrap;html=1;" vertex="1" parent="1">
          <mxGeometry x="190" y="160" height="10" as="geometry" />
        </mxCell>
        <mxCell id="9ob-cdifd-hkWzv3taAA-71" value="" style="shape=table;startSize=0;container=1;collapsible=0;childLayout=tableLayout;fontSize=16;" vertex="1" parent="1">
          <mxGeometry x="180" y="50" width="630" height="730" as="geometry" />
        </mxCell>
        <mxCell id="9ob-cdifd-hkWzv3taAA-89" style="shape=tableRow;horizontal=0;startSize=0;swimlaneHead=0;swimlaneBody=0;strokeColor=inherit;top=0;left=0;bottom=0;right=0;collapsible=0;dropTarget=0;fillColor=none;points=[[0,0.5],[1,0.5]];portConstraint=eastwest;fontSize=16;" vertex="1" parent="9ob-cdifd-hkWzv3taAA-71">
          <mxGeometry width="630" height="123" as="geometry" />
        </mxCell>
        <mxCell id="9ob-cdifd-hkWzv3taAA-90" value="Khách hàng" style="shape=partialRectangle;html=1;whiteSpace=wrap;connectable=0;strokeColor=inherit;overflow=hidden;fillColor=none;top=0;left=0;bottom=0;right=0;pointerEvents=1;fontSize=16;" vertex="1" parent="9ob-cdifd-hkWzv3taAA-89">
          <mxGeometry width="315" height="123" as="geometry">
            <mxRectangle width="315" height="123" as="alternateBounds" />
          </mxGeometry>
        </mxCell>
        <mxCell id="9ob-cdifd-hkWzv3taAA-91" value="Hệ thống" style="shape=partialRectangle;html=1;whiteSpace=wrap;connectable=0;strokeColor=inherit;overflow=hidden;fillColor=none;top=0;left=0;bottom=0;right=0;pointerEvents=1;fontSize=16;" vertex="1" parent="9ob-cdifd-hkWzv3taAA-89">
          <mxGeometry x="315" width="315" height="123" as="geometry">
            <mxRectangle width="315" height="123" as="alternateBounds" />
          </mxGeometry>
        </mxCell>
        <mxCell id="9ob-cdifd-hkWzv3taAA-80" value="" style="shape=tableRow;horizontal=0;startSize=0;swimlaneHead=0;swimlaneBody=0;strokeColor=inherit;top=0;left=0;bottom=0;right=0;collapsible=0;dropTarget=0;fillColor=none;points=[[0,0.5],[1,0.5]];portConstraint=eastwest;fontSize=16;" vertex="1" parent="9ob-cdifd-hkWzv3taAA-71">
          <mxGeometry y="123" width="630" height="607" as="geometry" />
        </mxCell>
        <mxCell id="9ob-cdifd-hkWzv3taAA-88" style="shape=partialRectangle;html=1;whiteSpace=wrap;connectable=0;strokeColor=inherit;overflow=hidden;fillColor=none;top=0;left=0;bottom=0;right=0;pointerEvents=1;fontSize=16;" vertex="1" parent="9ob-cdifd-hkWzv3taAA-80">
          <mxGeometry width="315" height="607" as="geometry">
            <mxRectangle width="315" height="607" as="alternateBounds" />
          </mxGeometry>
        </mxCell>
        <mxCell id="9ob-cdifd-hkWzv3taAA-81" value="" style="shape=partialRectangle;html=1;whiteSpace=wrap;connectable=0;strokeColor=inherit;overflow=hidden;fillColor=none;top=0;left=0;bottom=0;right=0;pointerEvents=1;fontSize=16;" vertex="1" parent="9ob-cdifd-hkWzv3taAA-80">
          <mxGeometry x="315" width="315" height="607" as="geometry">
            <mxRectangle width="315" height="607" as="alternateBounds" />
          </mxGeometry>
        </mxCell>
        <mxCell id="9ob-cdifd-hkWzv3taAA-92" value="" style="edgeStyle=orthogonalEdgeStyle;rounded=0;orthogonalLoop=1;jettySize=auto;html=1;" edge="1" parent="1" source="9ob-cdifd-hkWzv3taAA-93" target="9ob-cdifd-hkWzv3taAA-95">
          <mxGeometry relative="1" as="geometry" />
        </mxCell>
        <mxCell id="9ob-cdifd-hkWzv3taAA-93" value="" style="ellipse;fillColor=strokeColor;html=1;" vertex="1" parent="1">
          <mxGeometry x="320" y="190" width="60" height="60" as="geometry" />
        </mxCell>
        <mxCell id="9ob-cdifd-hkWzv3taAA-94" value="" style="edgeStyle=orthogonalEdgeStyle;rounded=0;orthogonalLoop=1;jettySize=auto;html=1;entryX=0;entryY=0.5;entryDx=0;entryDy=0;" edge="1" parent="1" source="9ob-cdifd-hkWzv3taAA-95" target="9ob-cdifd-hkWzv3taAA-96">
          <mxGeometry relative="1" as="geometry">
            <mxPoint x="510" y="460" as="targetPoint" />
            <Array as="points" />
          </mxGeometry>
        </mxCell>
        <mxCell id="9ob-cdifd-hkWzv3taAA-95" value="Nhập từ khóa cần tìm kiếm" style="rounded=1;whiteSpace=wrap;html=1;" vertex="1" parent="1">
          <mxGeometry x="290" y="290" width="120" height="60" as="geometry" />
        </mxCell>
        <mxCell id="9ob-cdifd-hkWzv3taAA-96" value="Tiếp nhận thông tin từ khóa cần tìm" style="rounded=1;whiteSpace=wrap;html=1;" vertex="1" parent="1">
          <mxGeometry x="620" y="290" width="120" height="60" as="geometry" />
        </mxCell>
        <mxCell id="9ob-cdifd-hkWzv3taAA-97" value="" style="edgeStyle=orthogonalEdgeStyle;rounded=0;orthogonalLoop=1;jettySize=auto;html=1;" edge="1" parent="1" source="9ob-cdifd-hkWzv3taAA-101" target="9ob-cdifd-hkWzv3taAA-104">
          <mxGeometry relative="1" as="geometry" />
        </mxCell>
        <mxCell id="9ob-cdifd-hkWzv3taAA-98" value="Yes" style="edgeLabel;html=1;align=center;verticalAlign=middle;resizable=0;points=[];" vertex="1" connectable="0" parent="9ob-cdifd-hkWzv3taAA-97">
          <mxGeometry x="-0.3818" y="2" relative="1" as="geometry">
            <mxPoint as="offset" />
          </mxGeometry>
        </mxCell>
        <mxCell id="9ob-cdifd-hkWzv3taAA-99" style="edgeStyle=orthogonalEdgeStyle;rounded=0;orthogonalLoop=1;jettySize=auto;html=1;entryX=0.5;entryY=1;entryDx=0;entryDy=0;" edge="1" parent="1" source="9ob-cdifd-hkWzv3taAA-101" target="9ob-cdifd-hkWzv3taAA-95">
          <mxGeometry relative="1" as="geometry" />
        </mxCell>
        <mxCell id="9ob-cdifd-hkWzv3taAA-100" value="No" style="edgeLabel;html=1;align=center;verticalAlign=middle;resizable=0;points=[];" vertex="1" connectable="0" parent="9ob-cdifd-hkWzv3taAA-99">
          <mxGeometry x="-0.3614" y="-1" relative="1" as="geometry">
            <mxPoint x="1" as="offset" />
          </mxGeometry>
        </mxCell>
        <mxCell id="9ob-cdifd-hkWzv3taAA-101" value="" style="html=1;whiteSpace=wrap;aspect=fixed;shape=isoRectangle;" vertex="1" parent="1">
          <mxGeometry x="642.5" y="450" width="75" height="45" as="geometry" />
        </mxCell>
        <mxCell id="9ob-cdifd-hkWzv3taAA-102" style="edgeStyle=orthogonalEdgeStyle;rounded=0;orthogonalLoop=1;jettySize=auto;html=1;entryX=0.493;entryY=0.044;entryDx=0;entryDy=0;entryPerimeter=0;fontFamily=Times New Roman;align=center;" edge="1" parent="1" source="9ob-cdifd-hkWzv3taAA-96" target="9ob-cdifd-hkWzv3taAA-101">
          <mxGeometry relative="1" as="geometry" />
        </mxCell>
        <mxCell id="9ob-cdifd-hkWzv3taAA-103" value="" style="edgeStyle=orthogonalEdgeStyle;rounded=0;orthogonalLoop=1;jettySize=auto;html=1;" edge="1" parent="1" source="9ob-cdifd-hkWzv3taAA-104" target="9ob-cdifd-hkWzv3taAA-105">
          <mxGeometry relative="1" as="geometry" />
        </mxCell>
        <mxCell id="9ob-cdifd-hkWzv3taAA-104" value="Hiện kết quả tìm được" style="rounded=1;whiteSpace=wrap;html=1;" vertex="1" parent="1">
          <mxGeometry x="620" y="550" width="120" height="60" as="geometry" />
        </mxCell>
        <mxCell id="9ob-cdifd-hkWzv3taAA-105" value="" style="ellipse;whiteSpace=wrap;html=1;rounded=1;" vertex="1" parent="1">
          <mxGeometry x="640" y="680" width="80" height="80" as="geometry" />
        </mxCell>
        <mxCell id="9ob-cdifd-hkWzv3taAA-106" value="" style="ellipse;fillColor=strokeColor;html=1;" vertex="1" parent="1">
          <mxGeometry x="650" y="690" width="60" height="60" as="geometry" />
        </mxCell>
      </root>
    </mxGraphModel>
  </diagram>
</mxfile>
